<svg width="256" height="40" viewBox="0 0 256 40" fill="none" xmlns="http://www.w3.org/2000/svg">
<rect width="256" height="40" rx="15" fill="url(#paint0_linear_106_3240)"/>
<rect width="256" height="40" rx="15" fill="white" fill-opacity="0.3"/>
<path d="M117.962 15.2236V22.3672H116.587V15.2236H117.962ZM118.22 23.7207V24.8164H111.409V21.7334H112.795V23.7207H118.22ZM113.579 17.4902C113.568 18.5859 114.31 19.6602 115.921 20.1006L115.266 21.1748C114.138 20.8633 113.359 20.2134 112.913 19.3809C112.473 20.2886 111.678 21.0083 110.518 21.3359L109.862 20.2725C111.474 19.7998 112.193 18.6504 112.193 17.4902V17.415H110.195V16.3516H112.193V15.2666H113.59V16.3516H115.577V17.415H113.579V17.4902ZM127.157 15.7822V16.6631C127.157 17.5762 127.157 18.5752 126.91 19.9395H128.199V21.0459H124.386V24.999H123.011V21.0459H119.283V19.9395H125.524C125.771 18.6772 125.793 17.7212 125.793 16.8779H120.304V15.7822H127.157ZM137.706 21.0674V22.1846H133.914V24.999H132.561V22.1846H128.79V21.0674H137.706ZM136.89 16.3408V17.415H133.957C134.113 18.2744 135.214 19.2412 137.233 19.4668L136.739 20.541C135.085 20.353 133.887 19.6763 133.248 18.7793C132.614 19.687 131.406 20.353 129.735 20.541L129.241 19.4668C131.261 19.2412 132.373 18.2798 132.539 17.415H129.596V16.3408H132.561V15.2236H133.914V16.3408H136.89ZM146.01 15.2129V18.9619H147.396V20.0898H146.01V24.9668H144.635V15.2129H146.01ZM143.399 16.2119C143.389 19.1338 142.25 21.6689 138.963 23.2803L138.189 22.2275C140.504 21.0674 141.745 19.5098 142.003 17.3291H138.748V16.2119H143.399Z" fill="white"/>
<defs>
<linearGradient id="paint0_linear_106_3240" x1="28" y1="40" x2="238" y2="40" gradientUnits="userSpaceOnUse">
<stop stop-color="#F27781"/>
<stop offset="1" stop-color="#AC66F2"/>
</linearGradient>
</defs>
</svg>
