<svg width="256" height="40" viewBox="0 0 256 40" fill="none" xmlns="http://www.w3.org/2000/svg">
<rect width="256" height="40" rx="15" fill="url(#paint0_linear_133_5261)"/>
<path d="M117.994 15.2129V24.9883H116.63V15.2129H117.994ZM109.819 22.2275C110.566 22.2222 111.42 22.2222 112.312 22.1953V21.3682C111.237 21.1802 110.539 20.5142 110.55 19.5957C110.539 18.5 111.538 17.7588 112.978 17.7588C114.428 17.7588 115.438 18.5 115.438 19.5957C115.438 20.5088 114.739 21.1748 113.665 21.3682V22.1523C114.481 22.1147 115.309 22.0503 116.093 21.9482L116.189 22.958C114.052 23.3232 111.742 23.3447 110.002 23.3447L109.819 22.2275ZM115.953 16.2979V17.3721H110.013V16.2979H112.312V15.2559H113.676V16.2979H115.953ZM112.978 18.8008C112.312 18.8008 111.839 19.0908 111.85 19.5957C111.839 20.1113 112.312 20.3906 112.978 20.3906C113.665 20.3906 114.127 20.1113 114.127 19.5957C114.127 19.0908 113.665 18.8008 112.978 18.8008ZM127.565 15.2236V22.6035H126.19V21.8301H124.321V20.8955H126.19V15.2236H127.565ZM127.78 23.7207V24.8164H120.497V21.8945H121.861V20.5947C120.986 20.6323 120.153 20.6377 119.412 20.6377L119.251 19.5527C121.045 19.542 123.462 19.5205 125.524 19.2627L125.6 20.2402C124.826 20.3691 124.026 20.4604 123.236 20.5195V22.3779H121.861V23.7207H127.78ZM122.431 15.5566C123.849 15.5459 124.869 16.2656 124.869 17.3076C124.869 18.3496 123.849 19.0264 122.431 19.0264C120.98 19.0264 119.971 18.3496 119.971 17.3076C119.971 16.2656 120.97 15.5459 122.431 15.5566ZM122.431 16.5557C121.732 16.5557 121.26 16.8242 121.271 17.3076C121.26 17.7803 121.732 18.0381 122.431 18.0381C123.086 18.0381 123.559 17.7803 123.569 17.3076C123.559 16.8242 123.086 16.5557 122.431 16.5557ZM136.503 15.2129V18.9619H137.889V20.0898H136.503V24.9668H135.128V15.2129H136.503ZM133.893 16.2119C133.882 19.1338 132.743 21.6689 129.456 23.2803L128.683 22.2275C130.998 21.0674 132.238 19.5098 132.496 17.3291H129.241V16.2119H133.893ZM146.482 15.2129V20.4658H145.107V15.2129H146.482ZM141.294 20.8955V21.8086H145.118V20.8955H146.482V24.8809H139.94V20.8955H141.294ZM141.294 23.7744H145.118V22.8721H141.294V23.7744ZM141.122 15.6211C142.647 15.6104 143.797 16.5664 143.797 17.9414C143.797 19.2734 142.647 20.2295 141.122 20.2295C139.597 20.2295 138.447 19.2734 138.447 17.9414C138.447 16.5664 139.597 15.6104 141.122 15.6211ZM141.122 16.7598C140.338 16.7598 139.779 17.2002 139.79 17.9414C139.779 18.6719 140.338 19.1016 141.122 19.1016C141.885 19.1016 142.443 18.6719 142.443 17.9414C142.443 17.2002 141.885 16.7598 141.122 16.7598Z" fill="white"/>
<defs>
<linearGradient id="paint0_linear_133_5261" x1="28" y1="40" x2="238" y2="40" gradientUnits="userSpaceOnUse">
<stop stop-color="#F27781"/>
<stop offset="1" stop-color="#AC66F2"/>
</linearGradient>
</defs>
</svg>
