<svg width="262" height="60" viewBox="0 0 262 60" fill="none" xmlns="http://www.w3.org/2000/svg">
<rect width="262" height="60" rx="15" fill="#FFD596"/>
<path d="M84.1055 20.8672V34.0898H80.9805V30.1445H79.2227V27.5859H80.9805V26.375H79.2227V23.8945H80.9805V20.8672H84.1055ZM78.7734 22.0586V24.5391H77.5234V29.4805C77.9727 29.4512 78.4023 29.4121 78.832 29.3633L78.9688 31.6289C75.668 32.1758 71.8203 32.2734 69.0078 32.2539L68.7148 29.7344H70.3555V24.5391H69.1445V22.0586H78.7734ZM84.4961 36.1797V38.6797H71.8594V33.1719H75.0234V36.1797H84.4961ZM73.3828 29.6758L74.5352 29.6562V24.5391H73.3828V29.6758ZM93.3438 25.3984C93.3438 28.2305 94.3984 31.3555 97.6602 32.6836L96 35.125C93.9297 34.2754 92.5918 32.6934 91.8203 30.75C91.0293 32.9082 89.6719 34.666 87.5625 35.5938L85.8047 33.1328C89.0469 31.7266 90.1406 28.4258 90.1406 25.3984V25.0859H86.5859V22.5469H96.8008V25.0859H93.3438V25.3984ZM101.273 20.8672V38.9336H98.1094V20.8672H101.273ZM117.758 20.8672V25.1055H120.004V27.7031H117.758V31.7852H114.613V20.8672H117.758ZM117.758 32.4102V38.7773H105.707V32.4102H117.758ZM108.793 34.8516V36.2773H114.672V34.8516H108.793ZM113.969 22.332V24.7734H103.285V22.332H107.055V20.8086H110.199V22.332H113.969ZM108.617 25.1055C111.273 25.1055 113.129 26.4531 113.129 28.3672C113.129 30.3008 111.254 31.6484 108.617 31.6484C105.941 31.6484 104.066 30.3008 104.066 28.3672C104.066 26.4531 105.941 25.1055 108.617 25.1055ZM108.617 27.4297C107.719 27.4297 107.133 27.7031 107.133 28.3672C107.133 29.0703 107.719 29.3828 108.617 29.3633C109.535 29.3828 110.16 29.0703 110.16 28.3672C110.16 27.7031 109.535 27.4297 108.617 27.4297ZM130.023 21.3164C131.41 21.3164 132.631 21.7656 133.5 22.5273H137.191V20.8672H140.316V29.793H137.191V28.543H133.48C132.611 29.2949 131.4 29.7344 130.023 29.7344C127.25 29.7344 125.121 27.9961 125.141 25.5156C125.121 23.0547 127.25 21.3164 130.023 21.3164ZM130.023 23.8164C128.891 23.8359 128.09 24.3828 128.109 25.5156C128.09 26.668 128.891 27.2344 130.023 27.2344C131.117 27.2344 131.879 26.668 131.898 25.5156C131.879 24.3828 131.117 23.8359 130.023 23.8164ZM140.316 30.457V35.6914H131.273V36.3359H140.746V38.7773H128.109V33.4258H137.191V32.8398H128.109V30.457H140.316ZM134.828 26.1211H137.191V24.9102H134.828C134.848 25.1055 134.867 25.3105 134.867 25.5156C134.867 25.7207 134.848 25.9258 134.828 26.1211ZM147.289 22.0781C149.701 22.0586 151.537 24.002 151.977 27.1562H154.535V20.8672H157.641V38.9922H154.535V29.6562H152.016C151.684 33.0645 149.789 35.1445 147.289 35.1445C144.496 35.1445 142.484 32.625 142.484 28.582C142.484 24.5977 144.496 22.0586 147.289 22.0781ZM147.289 24.9102C146.215 24.8906 145.473 26.082 145.492 28.582C145.473 31.1211 146.215 32.2734 147.289 32.2734C148.383 32.2734 149.086 31.1211 149.086 28.582C149.086 26.082 148.383 24.8906 147.289 24.9102ZM176.02 34.4609V36.9805H159.516V34.4609H166.195V31.4727H161.137V21.9414H164.281V24.4609H171.176V21.9414H174.301V31.4727H169.301V34.4609H176.02ZM164.281 28.9922H171.176V26.9219H164.281V28.9922ZM192.133 20.8672V38.9336H188.949V20.8672H192.133ZM186.664 22.7227C186.664 28.3867 185.062 32.8984 178.363 36.0234L176.762 33.5625C181.273 31.4141 183.08 28.9336 183.48 25.1641H177.797V22.7227H186.664Z" fill="black"/>
</svg>
