<svg width="300" height="60" viewBox="0 0 300 60" fill="none" xmlns="http://www.w3.org/2000/svg">
<rect width="300" height="60" rx="15" fill="#FFD596"/>
<path d="M140.986 34.5391V37.0781H124.482V34.5391H131.162V32.2344H126.279V25.8477H136.104V24.4414H126.26V21.9414H139.209V28.2695H129.424V29.7148H139.619V32.2344H134.268V34.5391H140.986ZM156.338 22.3711V24.7734C156.338 27.3906 156.338 29.7734 155.713 33.3867L152.529 33.1523C153.184 29.832 153.193 27.3613 153.193 24.8711H143.428V22.3711H156.338ZM158.252 34.207V36.7461H141.768V34.207H158.252ZM174.287 20.9062V33.7383H171.143V20.9062H174.287ZM174.717 36.1797V38.6797H161.924V32.4492H165.088V36.1797H174.717ZM164.307 21.9805C167.119 21.9805 169.365 23.9336 169.365 26.6094C169.365 29.3438 167.119 31.2773 164.307 31.2773C161.494 31.2773 159.229 29.3438 159.248 26.6094C159.229 23.9336 161.494 21.9805 164.307 21.9805ZM164.307 24.6953C163.154 24.6953 162.295 25.3398 162.295 26.6094C162.295 27.9375 163.154 28.5625 164.307 28.5625C165.4 28.5625 166.26 27.9375 166.26 26.6094C166.26 25.3398 165.4 24.6953 164.307 24.6953Z" fill="black"/>
</svg>
