<svg width="256" height="40" viewBox="0 0 256 40" fill="none" xmlns="http://www.w3.org/2000/svg">
<rect width="256" height="40" rx="15" fill="url(#paint0_linear_68_2303)"/>
<path d="M123.478 22.7754V23.9033H114.53V22.7754H118.3V21.3037H115.561V18.0166H121.093V16.9424H115.55V15.8467H122.447V19.0908H116.936V20.1865H122.672V21.3037H119.665V22.7754H123.478ZM131.857 16.1152V17.2861C131.857 18.6289 131.857 19.9609 131.502 21.9805L130.117 21.8623C130.482 19.9824 130.482 18.5859 130.493 17.2861V17.2109H124.96V16.1152H131.857ZM132.953 22.582V23.71H124.037V22.582H132.953ZM141.729 15.2236V22.249H140.354V15.2236H141.729ZM141.987 23.7207V24.8164H135.176V21.54H136.562V23.7207H141.987ZM136.369 15.8467C137.873 15.8467 139.043 16.8779 139.043 18.3066C139.043 19.7676 137.873 20.7881 136.369 20.7881C134.865 20.7881 133.694 19.7676 133.694 18.3066C133.694 16.8779 134.865 15.8467 136.369 15.8467ZM136.369 17.0391C135.606 17.0283 135.026 17.5117 135.037 18.3066C135.026 19.123 135.606 19.5957 136.369 19.5957C137.11 19.5957 137.69 19.123 137.69 18.3066C137.69 17.5117 137.11 17.0283 136.369 17.0391Z" fill="white"/>
<defs>
<linearGradient id="paint0_linear_68_2303" x1="28" y1="40" x2="238" y2="40" gradientUnits="userSpaceOnUse">
<stop stop-color="#F27781"/>
<stop offset="1" stop-color="#AC66F2"/>
</linearGradient>
</defs>
</svg>
