<svg width="360" height="800" viewBox="0 0 360 800" fill="none" xmlns="http://www.w3.org/2000/svg">
<g clip-path="url(#clip0_68_1972)">
<rect width="360" height="800" fill="url(#paint0_linear_68_1972)"/>
<g style="mix-blend-mode:screen">
<path d="M456.614 633.595C456.614 711.108 393.777 773.945 316.263 773.945C238.749 773.945 175.912 711.108 175.912 633.595C175.912 556.081 238.749 493.244 316.263 493.244C393.777 493.244 456.614 556.081 456.614 633.595ZM231.269 633.595C231.269 680.535 269.322 718.588 316.263 718.588C363.204 718.588 401.257 680.535 401.257 633.595C401.257 586.654 363.204 548.601 316.263 548.601C269.322 548.601 231.269 586.654 231.269 633.595Z" fill="url(#paint1_linear_68_1972)"/>
<circle cx="72.635" cy="151.635" r="115.635" fill="url(#paint2_linear_68_1972)"/>
<circle cx="176.203" cy="66.2032" r="66.2032" fill="url(#paint3_linear_68_1972)"/>
<path d="M277.424 768.208C277.424 801.115 250.747 827.791 217.841 827.791C184.934 827.791 158.258 801.115 158.258 768.208C158.258 735.301 184.934 708.625 217.841 708.625C250.747 708.625 277.424 735.301 277.424 768.208ZM204.264 768.208C204.264 775.706 210.343 781.784 217.841 781.784C225.339 781.784 231.417 775.706 231.417 768.208C231.417 760.71 225.339 754.631 217.841 754.631C210.343 754.631 204.264 760.71 204.264 768.208Z" fill="url(#paint4_linear_68_1972)"/>
</g>
</g>
<defs>
<linearGradient id="paint0_linear_68_1972" x1="180" y1="0" x2="180" y2="800" gradientUnits="userSpaceOnUse">
<stop stop-color="#F27781"/>
<stop offset="1" stop-color="#ECF229"/>
</linearGradient>
<linearGradient id="paint1_linear_68_1972" x1="316.263" y1="493.244" x2="316.263" y2="773.945" gradientUnits="userSpaceOnUse">
<stop stop-color="#FFA358"/>
<stop offset="1" stop-color="#F1A3BF"/>
</linearGradient>
<linearGradient id="paint2_linear_68_1972" x1="72.635" y1="36" x2="72.635" y2="267.27" gradientUnits="userSpaceOnUse">
<stop stop-color="#FFA358"/>
<stop offset="1" stop-color="#F1A3BF"/>
</linearGradient>
<linearGradient id="paint3_linear_68_1972" x1="176.203" y1="0" x2="176.203" y2="132.406" gradientUnits="userSpaceOnUse">
<stop stop-color="#FFEDDF"/>
<stop offset="1" stop-color="#F1D6A3"/>
</linearGradient>
<linearGradient id="paint4_linear_68_1972" x1="254.915" y1="714.362" x2="213.427" y2="787.186" gradientUnits="userSpaceOnUse">
<stop stop-color="#58FFD7"/>
<stop offset="1" stop-color="#AB83FF"/>
</linearGradient>
<clipPath id="clip0_68_1972">
<rect width="360" height="800" fill="white"/>
</clipPath>
</defs>
</svg>
